<?xml version="1.0" standalone="no"?>
<!DOCTYPE svg PUBLIC "-//W3C//DTD SVG 20010904//EN" "http://www.w3.org/TR/2001/REC-SVG-20010904/DTD/svg10.dtd">
<svg version="1.0" xmlns="http://www.w3.org/2000/svg" width="700pt" height="700pt" viewBox="0 0 700 700" preserveAspectRatio="xMidYMid meet">
  <g transform="translate(0.000000,700.000000) scale(0.100000,-0.100000)" fill="#000000" stroke="none">
    <path d="M1575 5833 c-82 -18 -159 -69 -207 -136 -65 -91 -63 -54 -63 -1097 0
    -1043 -2 -1006 63 -1097 37 -52 89 -92 153 -117 48 -19 82 -20 479 -20 l427 0
    53 53 c47 47 52 57 52 98 0 41 -5 51 -52 98 l-53 53 -427 0 -427 0 0 932 0
    932 427 0 427 0 53 53 c47 47 52 57 52 98 0 41 -5 51 -52 98 l-53 53 -400 2
    c-220 0 -421 -2 -447 -5z"/>
    <path d="M4670 5785 c-47 -47 -52 -57 -52 -98 0 -41 5 -51 52 -98 l53 -53 427
    0 427 0 0 -932 0 -932 -427 0 -427 0 -53 -53 c-47 -47 -52 -57 -52 -98 0 -41
    5 -51 52 -98 l53 -53 427 0 c397 0 431 1 479 20 64 25 116 65 153 117 65 91
    63 54 63 1097 0 1043 2 1006 -63 1097 -37 52 -89 92 -153 117 -48 19 -82 20
    -479 20 l-427 0 -53 -53z"/>
    <path d="M2240 4620 l0 -100 520 0 520 0 0 100 0 100 -520 0 -520 0 0 -100z"/>
    <path d="M3720 4620 l0 -100 520 0 520 0 0 100 0 100 -520 0 -520 0 0 -100z"/>
    <path d="M2240 4120 l0 -100 520 0 520 0 0 100 0 100 -520 0 -520 0 0 -100z"/>
    <path d="M3720 4120 l0 -100 520 0 520 0 0 100 0 100 -520 0 -520 0 0 -100z"/>
    <path d="M2240 3620 l0 -100 520 0 520 0 0 100 0 100 -520 0 -520 0 0 -100z"/>
    <path d="M3720 3620 l0 -100 520 0 520 0 0 100 0 100 -520 0 -520 0 0 -100z"/>
  </g>
</svg> 